<svg width="1000" height="312" viewBox="0 0 1000 312" fill="none" xmlns="http://www.w3.org/2000/svg">
<path fill-rule="evenodd" clip-rule="evenodd" d="M464.95 62.7195C471.927 61.4144 479.157 62.1057 485.716 64.7051C492.308 67.2674 497.946 71.6249 501.914 77.2242C505.882 82.8234 508 89.4117 508 96.152V221.117C508 227.857 505.882 234.445 501.914 240.044C497.946 245.644 492.308 250.001 485.716 252.564C481.368 254.315 476.689 255.212 471.963 255.198C462.477 255.293 453.338 251.83 446.546 245.566L386.223 188.517C377.899 180.63 373.224 169.942 373.224 158.799C373.224 147.656 377.899 136.968 386.223 129.081L446.546 72.0317C451.565 67.2666 457.973 64.0245 464.95 62.7195ZM477.127 224.377C477.8 223.41 478.154 222.275 478.143 221.117V96.4813C478.2 95.308 477.859 94.1483 477.17 93.171C476.481 92.1938 475.48 91.45 474.313 91.048C473.516 90.7242 472.657 90.5562 471.789 90.5541C470.302 90.382 468.803 90.766 467.611 91.6243L407.288 148.673C405.925 149.958 404.843 151.485 404.105 153.166C403.367 154.847 402.987 156.649 402.987 158.47C402.987 160.29 403.367 162.092 404.105 163.773C404.843 165.454 405.925 166.981 407.288 168.266L467.611 225.315C468.48 226.131 469.586 226.684 470.788 226.904C471.991 227.124 473.235 227.001 474.364 226.552C475.492 226.102 476.454 225.345 477.127 224.377ZM52.2276 4.92226e-05H272.889C288.018 0.0218606 302.52 5.72109 313.21 15.8463C323.9 25.9715 329.904 39.6949 329.904 54.0032V262.689C329.896 267.534 328.672 272.306 326.336 276.614V276.516C323.066 282.756 317.491 287.647 310.667 290.264C304.972 292.639 298.657 293.351 292.531 292.31C286.406 291.269 280.748 288.521 276.284 284.419L275.529 283.705C275.578 283.698 275.626 283.69 275.674 283.681L200.206 215.93L169.207 245.141L185.843 229.264L164.69 209.342L156.156 217.36L188.977 186.294C191.764 183.769 195.475 182.359 199.335 182.359C203.195 182.359 206.906 183.769 209.694 186.294L296.74 264.336C297.059 264.544 297.439 264.656 297.828 264.656C298.216 264.656 298.596 264.544 298.916 264.336C299.291 264.24 299.619 264.023 299.842 263.722C300.064 263.421 300.168 263.055 300.134 262.689V54.0032C300.134 47.1618 297.267 40.5995 292.16 35.7542C287.053 30.9089 280.123 28.1759 272.889 28.1541H52.2276C51.8322 28.1423 51.4444 28.2581 51.128 28.4826C50.8115 28.707 50.5853 29.0267 50.4867 29.389C50.2534 29.6867 50.1275 30.0474 50.1275 30.418C50.1275 30.7885 50.2534 31.1493 50.4867 31.447L132.919 113.769C135.636 116.399 137.157 119.93 137.157 123.606C137.157 127.283 135.636 130.814 132.919 133.444L108.723 156.327L87.8296 136.489L101.583 123.483L29.7697 51.5336C29.7668 51.585 29.7641 51.6364 29.7616 51.6879L29.1604 51.1193C24.7273 46.8662 21.7696 41.4368 20.681 35.5541C19.5925 29.6714 20.4248 23.6147 23.0672 18.1906C25.8641 11.8642 30.9042 6.66227 37.3138 3.47476C37.4104 3.44135 37.507 3.40818 37.6039 3.37525C42.1185 1.14941 47.1363 -0.00870138 52.2276 4.92226e-05ZM0 167.193L1.90375e-05 258.079C0.0230821 272.387 6.04936 286.102 16.7556 296.212C27.4618 306.322 41.9728 312 57.1021 312H272.889C273.06 312 273.231 311.999 273.401 311.997H153.114V283.846H128.132L128.134 283.843H85.917L85.9143 283.846H57.1021C49.8682 283.846 42.9292 281.134 37.8059 276.304C32.6826 271.474 29.7928 264.92 29.7697 258.079V230.501V190.904V167.193H0Z" fill="#49AAEF"/>
<path d="M326.336 276.52C323.066 282.76 317.492 287.65 310.667 290.267C304.972 292.642 298.657 293.354 292.532 292.313C286.406 291.272 280.748 288.524 276.284 284.422L275.501 283.682C274.633 283.764 273.758 283.764 272.889 283.682H153.114V312H326.336V276.52Z" fill="url(#paint0_linear)"/>
<path d="M37.6909 3.29102C31.1019 6.46022 25.9188 11.7414 23.0672 18.1913C20.4248 23.6154 19.5925 29.6721 20.681 35.5548C21.7696 41.4375 24.7273 46.8669 29.1604 51.12L29.759 51.6862L29.7656 167.194H0V3.29102H37.6909Z" fill="url(#paint1_linear)"/>
<path d="M29.7695 231.572V190.081L87.823 136.486L108.721 156.329L29.7695 231.572Z" fill="url(#paint2_linear)"/>
<path d="M185.843 229.268L128.653 283.847H85.3916L164.69 209.346L185.843 229.268Z" fill="url(#paint3_linear)"/>
<path d="M984.848 138.905C985.442 138.051 986.201 137.323 987.081 136.764C987.961 136.205 988.944 135.825 989.974 135.648C991.003 135.47 992.058 135.499 993.076 135.731C994.095 135.963 995.056 136.395 995.905 137C996.785 137.58 997.53 138.341 998.089 139.231C998.649 140.12 999.01 141.119 999.149 142.159C999.287 143.199 999.2 144.256 998.892 145.26C998.585 146.263 998.065 147.19 997.367 147.977L965.066 189.481L956.431 176.917L984.848 138.905ZM928.79 236.746C928.164 237.698 927.348 238.51 926.391 239.134C925.434 239.757 924.358 240.178 923.231 240.369C922.103 240.561 920.947 240.519 919.836 240.247C918.725 239.975 917.683 239.478 916.774 238.788C915.923 238.026 915.242 237.096 914.776 236.057C914.31 235.017 914.069 233.892 914.069 232.755C914.069 231.617 914.31 230.492 914.776 229.453C915.242 228.414 915.923 227.483 916.774 226.722L948.755 186.805L957.39 200.141L928.79 236.746ZM915.084 148.612C914.406 147.787 913.904 146.832 913.609 145.808C913.315 144.783 913.233 143.71 913.37 142.653C913.507 141.596 913.859 140.578 914.405 139.661C914.951 138.744 915.679 137.946 916.546 137.318C917.399 136.595 918.394 136.057 919.468 135.737C920.542 135.417 921.671 135.323 922.784 135.459C923.897 135.596 924.969 135.96 925.932 136.53C926.895 137.1 927.728 137.863 928.379 138.769L998.144 227.357C998.826 228.162 999.333 229.099 999.634 230.108C999.934 231.117 1000.02 232.177 999.887 233.221C999.754 234.266 999.404 235.271 998.86 236.174C998.317 237.078 997.59 237.859 996.727 238.47C995.867 239.2 994.862 239.741 993.777 240.059C992.692 240.376 991.551 240.463 990.43 240.313C989.309 240.163 988.232 239.78 987.271 239.189C986.309 238.598 985.483 237.812 984.848 236.883L915.084 148.612ZM887.397 231.485C887.448 232.591 887.268 233.695 886.871 234.729C886.473 235.763 885.866 236.705 885.086 237.497C884.306 238.288 883.37 238.911 882.338 239.329C881.305 239.746 880.197 239.948 879.082 239.922C877.969 239.963 876.86 239.771 875.828 239.357C874.795 238.944 873.862 238.318 873.09 237.521C872.318 236.725 871.724 235.775 871.347 234.735C870.971 233.695 870.82 232.587 870.904 231.485V100.395C870.879 99.2821 871.082 98.1759 871.5 97.1435C871.919 96.1111 872.545 95.1739 873.34 94.3891C874.135 93.6042 875.082 92.988 876.124 92.5778C877.166 92.1677 878.281 91.9722 879.402 92.0032C880.499 91.974 881.59 92.1747 882.604 92.5923C883.618 93.0099 884.532 93.6349 885.287 94.4267C886.041 95.2184 886.619 96.1591 886.982 97.1874C887.346 98.2157 887.487 99.3086 887.397 100.395V231.485ZM833.989 231.485C834.073 232.611 833.923 233.743 833.546 234.809C833.17 235.875 832.577 236.852 831.803 237.68C831.029 238.508 830.091 239.168 829.048 239.62C828.005 240.072 826.88 240.305 825.742 240.305C824.604 240.305 823.479 240.072 822.436 239.62C821.393 239.168 820.455 238.508 819.681 237.68C818.907 236.852 818.314 235.875 817.937 234.809C817.561 233.743 817.411 232.611 817.495 231.485V100.395C817.47 99.2821 817.673 98.1759 818.092 97.1435C818.511 96.1111 819.136 95.1739 819.931 94.3891C820.726 93.6042 821.673 92.988 822.715 92.5778C823.757 92.1677 824.873 91.9722 825.993 92.0032C827.091 91.974 828.182 92.1747 829.196 92.5923C830.21 93.0099 831.124 93.6349 831.878 94.4267C832.632 95.2184 833.21 96.1591 833.574 97.1874C833.937 98.2157 834.079 99.3086 833.989 100.395V231.485ZM746.451 241.963C714.47 241.963 692.769 220.372 692.769 189.028C692.586 158.455 712.323 133.916 741.197 133.916C767.696 133.916 783.732 150.155 788.347 175.556C788.709 177.432 788.651 179.364 788.176 181.215C787.702 183.066 786.823 184.791 785.602 186.267C784.382 187.743 782.849 188.935 781.112 189.757C779.376 190.579 777.478 191.011 775.554 191.024H706.612C705.664 191.024 704.726 190.836 703.852 190.472C702.979 190.108 702.187 189.575 701.523 188.903C700.859 188.232 700.337 187.436 699.987 186.561C699.637 185.687 699.466 184.752 699.485 183.812V183.812C699.485 181.935 700.236 180.135 701.572 178.808C702.909 177.481 704.722 176.735 706.612 176.735H772.219V175.284C771.26 159.998 756.685 149.202 741.289 149.202C720.638 149.202 708.439 164.806 708.439 187.712C708.439 210.619 723.196 226.677 745.766 226.677C750.571 226.961 755.38 226.213 759.867 224.483C764.353 222.753 768.411 220.082 771.762 216.652C772.347 215.704 773.139 214.897 774.08 214.293C775.02 213.689 776.085 213.301 777.196 213.159C778.307 213.018 779.437 213.125 780.5 213.474C781.564 213.822 782.536 214.403 783.343 215.174C784.151 215.945 784.775 216.886 785.168 217.927C785.561 218.969 785.714 220.084 785.615 221.192C785.517 222.3 785.169 223.372 784.598 224.329C784.027 225.286 783.247 226.104 782.316 226.722C772.79 236.316 759.837 241.792 746.269 241.963H746.451ZM621.907 241.963C613.132 242.257 604.387 240.803 596.187 237.687C587.987 234.571 580.499 229.855 574.164 223.819C572.4 222.306 571.286 220.181 571.048 217.879C570.81 215.578 571.467 213.272 572.885 211.436C574.606 209.849 576.891 209.006 579.239 209.091C581.586 209.176 583.803 210.182 585.403 211.889C590.175 216.551 595.829 220.23 602.039 222.713C608.25 225.196 614.893 226.436 621.588 226.359C637.304 226.359 653.021 218.421 653.021 204.269C653.021 188.211 638.401 181.589 617.613 176.735C590.84 170.521 574.986 155.598 574.986 136.32C574.986 111.825 596.277 98.1721 622.547 98.1721C637.624 98.1721 653.98 103.116 663.666 113.096C664.648 113.843 665.467 114.78 666.074 115.851C666.68 116.922 667.061 118.104 667.194 119.326C667.326 120.548 667.207 121.783 666.844 122.958C666.481 124.132 665.882 125.221 665.082 126.159C663.405 127.522 661.274 128.213 659.11 128.095C656.946 127.978 654.904 127.061 653.386 125.524C644.673 118.282 633.767 114.146 622.41 113.776C605.917 113.776 591.343 121.079 591.343 135.549C591.343 150.835 606.1 156.097 624.009 161.313C655.259 168.979 669.696 182.179 669.696 203.498C669.468 227.493 646.716 241.963 621.725 241.963H621.907Z" fill="white"/>
<defs>
<linearGradient id="paint0_linear" x1="152.766" y1="294.301" x2="298.133" y2="294.301" gradientUnits="userSpaceOnUse">
<stop stop-color="#49AAEF"/>
<stop offset="1" stop-color="#49AAEF" stop-opacity="0"/>
</linearGradient>
<linearGradient id="paint1_linear" x1="17.4092" y1="164.642" x2="17.4092" y2="37.043" gradientUnits="userSpaceOnUse">
<stop stop-color="#49AAEF"/>
<stop offset="1" stop-color="#49AAEF" stop-opacity="0"/>
</linearGradient>
<linearGradient id="paint2_linear" x1="18.8017" y1="221.199" x2="93.685" y2="142.106" gradientUnits="userSpaceOnUse">
<stop stop-color="#49AAEF" stop-opacity="0"/>
<stop offset="1" stop-color="#49AAEF"/>
</linearGradient>
<linearGradient id="paint3_linear" x1="105.317" y1="300.227" x2="133.805" y2="210.592" gradientUnits="userSpaceOnUse">
<stop stop-color="#49AAEF" stop-opacity="0"/>
<stop offset="1" stop-color="#49AAEF"/>
</linearGradient>
</defs>
</svg>
