<svg width="144" height="24" viewBox="0 0 144 24" fill="none" xmlns="http://www.w3.org/2000/svg">
<g clip-path="url(#clip0)">
<path opacity="0.7" fill-rule="evenodd" clip-rule="evenodd" d="M119.483 12.0024C119.483 8.16829 121.291 4.7676 124.07 2.56714C124.07 2.56714 124.07 2.56714 124.07 2.56714H124.103C124.103 2.56714 124.103 2.56714 124.103 2.56714C126.882 4.7676 128.689 8.16829 128.689 12.0024C128.689 15.8365 126.915 19.2372 124.103 21.4377H124.07C121.291 19.2706 119.483 15.8365 119.483 12.0024Z" fill="#707B7E"/>
<path opacity="0.4" d="M119.897 12.0025C119.897 8.16835 121.705 4.76765 124.483 2.5672C122.441 0.96687 119.864 0 117.052 0C110.39 0 105 5.36777 105 12.0025C105 18.6372 110.39 24.0049 117.052 24.0049C119.864 24.0049 122.441 23.0381 124.483 21.4378C121.705 19.2706 119.897 15.8366 119.897 12.0025Z" fill="#707B7E"/>
<path d="M143.173 12.0025C143.173 18.6372 137.783 24.0049 131.121 24.0049C128.309 24.0049 125.732 23.0381 123.689 21.4378C126.501 19.2373 128.276 15.8366 128.276 12.0025C128.276 8.16835 126.468 4.76765 123.689 2.5672C125.732 0.96687 128.309 0 131.121 0C137.783 0 143.173 5.40111 143.173 12.0025Z" fill="#707B7E"/>
</g>
<path d="M33.616 8.39348C33.5794 11.1792 36.2212 12.7337 38.213 13.6578C40.2582 14.6066 40.9461 15.2148 40.9383 16.0629C40.9226 17.3613 39.3067 17.9333 37.794 17.9557C35.1548 17.9943 33.6212 17.2767 32.4008 16.7345L31.4506 20.9728C32.6749 21.51 34.9408 21.9789 37.2902 21.9988C42.806 21.9988 46.415 19.4046 46.4345 15.3814C46.4554 10.2763 39.0235 9.99403 39.0744 7.71198C39.0914 7.02052 39.7844 6.28181 41.3037 6.09402C42.0555 5.9995 44.1295 5.92613 46.4815 6.95834L47.4043 2.8581C46.1396 2.42035 44.5133 2 42.4889 2C37.298 2 33.646 4.63027 33.616 8.39348ZM56.2759 2.35319C55.2683 2.35319 54.4199 2.91282 54.0414 3.77217L46.1617 21.6978H51.6737L52.7701 18.8101H59.5063L60.1433 21.6978H65L60.7606 2.35319H56.2759ZM57.046 7.57891L58.637 14.8429H54.2802L57.046 7.57891ZM26.9332 2.35319L22.5882 21.6978H27.8404L32.1841 2.35319H26.9332ZM19.1633 2.35319L13.6957 15.5195L11.4846 4.32434C11.2249 3.07449 10.2003 2.35319 9.06215 2.35319H0.125301L0 2.91531C1.83514 3.29462 3.91958 3.90648 5.18173 4.56063C5.95442 4.96107 6.175 5.31053 6.42952 6.26066L10.618 21.6978H16.1691L24.6791 2.35319H19.1633Z" fill="#707B7E"/>
<defs>
<clipPath id="clip0">
<rect width="39" height="24" fill="white" transform="translate(105)"/>
</clipPath>
</defs>
</svg>
