<svg width="237" height="50" viewBox="0 0 237 50" fill="none" xmlns="http://www.w3.org/2000/svg">
<g opacity="0.6">
<path d="M231.966 15.6351C232.164 15.3504 232.417 15.1078 232.711 14.9213C233.004 14.7349 233.332 14.6084 233.675 14.5492C234.018 14.4901 234.37 14.4995 234.709 14.5769C235.049 14.6543 235.369 14.7982 235.652 15.0001C235.946 15.1934 236.194 15.447 236.381 15.7436C236.567 16.0402 236.688 16.373 236.734 16.7196C236.78 17.0662 236.751 17.4187 236.648 17.7532C236.546 18.0877 236.372 18.3966 236.14 18.6591L225.371 32.4938L222.493 28.3056L231.966 15.6351ZM213.278 48.2488C213.069 48.5659 212.797 48.8368 212.478 49.0446C212.159 49.2524 211.801 49.3926 211.425 49.4565C211.049 49.5203 210.663 49.5065 210.293 49.4157C209.923 49.325 209.575 49.1594 209.272 48.9292C208.988 48.6754 208.761 48.3653 208.606 48.0188C208.451 47.6724 208.371 47.2975 208.371 46.9183C208.371 46.5391 208.451 46.1641 208.606 45.8177C208.761 45.4713 208.988 45.1611 209.272 44.9073L219.934 31.6018L222.813 36.047L213.278 48.2488ZM208.709 18.8708C208.483 18.5955 208.315 18.2774 208.217 17.9359C208.119 17.5944 208.092 17.2366 208.137 16.8843C208.183 16.5321 208.3 16.1927 208.482 15.887C208.664 15.5812 208.907 15.3155 209.196 15.1059C209.48 14.8652 209.812 14.6858 210.17 14.5791C210.528 14.4725 210.905 14.4409 211.276 14.4864C211.647 14.5319 212.004 14.6535 212.325 14.8434C212.646 15.0334 212.924 15.2875 213.141 15.5897L236.399 45.119C236.626 45.3873 236.795 45.6996 236.895 46.036C236.995 46.3725 237.024 46.7258 236.98 47.0738C236.935 47.4218 236.819 47.757 236.638 48.0581C236.456 48.3592 236.214 48.6198 235.926 48.8234C235.64 49.0666 235.305 49.247 234.943 49.3529C234.581 49.4588 234.201 49.4877 233.827 49.4377C233.453 49.3878 233.095 49.2601 232.774 49.0631C232.453 48.866 232.178 48.604 231.966 48.2942L208.709 18.8708ZM199.479 46.4949C199.495 46.8635 199.436 47.2317 199.303 47.5764C199.171 47.9211 198.968 48.2351 198.708 48.4989C198.448 48.7626 198.136 48.9705 197.792 49.1095C197.448 49.2486 197.078 49.3159 196.707 49.3072C196.336 49.3211 195.966 49.2569 195.622 49.1191C195.277 48.9812 194.966 48.7726 194.709 48.5071C194.452 48.2416 194.254 47.9251 194.128 47.5783C194.002 47.2315 193.952 46.8623 193.98 46.4949V2.79825C193.972 2.42736 194.04 2.05863 194.179 1.71449C194.319 1.37035 194.527 1.05798 194.792 0.796355C195.057 0.534732 195.373 0.329321 195.72 0.192605C196.068 0.0558886 196.44 -0.00927856 196.813 0.00106368C197.179 -0.00866455 197.543 0.0582469 197.881 0.197436C198.219 0.336626 198.524 0.544969 198.775 0.808885C199.027 1.0728 199.219 1.38636 199.34 1.72914C199.462 2.07191 199.509 2.4362 199.479 2.79825V46.4949ZM181.674 46.4949C181.702 46.8704 181.652 47.2476 181.526 47.6029C181.401 47.9583 181.203 48.2841 180.945 48.5601C180.687 48.836 180.374 49.0561 180.027 49.2067C179.679 49.3572 179.304 49.4349 178.924 49.4349C178.545 49.4349 178.17 49.3572 177.822 49.2067C177.475 49.0561 177.162 48.836 176.904 48.5601C176.646 48.2841 176.448 47.9583 176.323 47.6029C176.197 47.2476 176.147 46.8704 176.175 46.4949V2.79825C176.167 2.42736 176.234 2.05863 176.374 1.71449C176.514 1.37035 176.722 1.05798 176.987 0.796355C177.252 0.534732 177.568 0.329321 177.915 0.192605C178.263 0.0558886 178.635 -0.00927856 179.008 0.00106368C179.374 -0.00866455 179.738 0.0582469 180.076 0.197436C180.414 0.336626 180.719 0.544969 180.97 0.808885C181.221 1.0728 181.414 1.38636 181.535 1.72914C181.657 2.07191 181.704 2.4362 181.674 2.79825V46.4949ZM152.491 49.9876C141.829 49.9876 134.595 42.7905 134.595 32.3426C134.534 22.1518 141.113 13.9719 150.739 13.9719C159.573 13.9719 164.919 19.3848 166.458 27.852C166.579 28.4773 166.559 29.1213 166.401 29.7383C166.243 30.3554 165.95 30.9303 165.543 31.4224C165.136 31.9144 164.625 32.3115 164.046 32.5855C163.467 32.8596 162.834 33.0038 162.193 33.0079H139.21C138.894 33.008 138.581 32.9455 138.29 32.8241C137.998 32.7028 137.734 32.525 137.513 32.3011C137.292 32.0772 137.118 31.8118 137.001 31.5204C136.884 31.229 136.827 30.9174 136.833 30.6038C136.833 29.9783 137.084 29.3783 137.529 28.936C137.975 28.4936 138.579 28.2451 139.21 28.2451H161.081V27.7613C160.761 22.6659 155.903 19.0673 150.77 19.0673C143.885 19.0673 139.819 24.2686 139.819 31.9042C139.819 39.5397 144.738 44.8922 152.263 44.8922C153.864 44.9871 155.468 44.7377 156.963 44.161C158.459 43.5843 159.812 42.6939 160.929 41.5507C161.124 41.2345 161.388 40.9658 161.702 40.7643C162.015 40.5629 162.37 40.4337 162.741 40.3865C163.111 40.3392 163.487 40.375 163.842 40.4912C164.197 40.6075 164.521 40.8011 164.79 41.058C165.059 41.3149 165.267 41.6285 165.398 41.9757C165.529 42.3229 165.58 42.6948 165.547 43.0641C165.514 43.4334 165.398 43.7907 165.208 44.1097C165.018 44.4287 164.758 44.7012 164.447 44.9073C161.272 48.1052 156.953 49.9308 152.43 49.9876H152.491ZM110.971 49.9876C108.046 50.0857 105.13 49.601 102.397 48.5623C99.663 47.5235 97.1666 45.9517 95.0548 43.9396C94.4668 43.4354 94.0952 42.7271 94.0159 41.9598C93.9366 41.1925 94.1557 40.4241 94.6284 39.8119C95.2022 39.283 95.964 39.0019 96.7465 39.0302C97.529 39.0586 98.2682 39.3941 98.8016 39.9631C100.393 41.5171 102.277 42.7432 104.348 43.571C106.418 44.3988 108.633 44.8119 110.865 44.7864C116.104 44.7864 121.344 42.1404 121.344 37.4229C121.344 32.0705 116.47 29.863 109.54 28.2451C100.614 26.1737 95.329 21.1992 95.329 14.7733C95.329 6.60848 102.427 2.05738 111.184 2.05738C116.211 2.05738 121.663 3.70545 124.892 7.03184C125.22 7.28091 125.493 7.59343 125.695 7.95043C125.897 8.30743 126.024 8.70148 126.068 9.10867C126.113 9.51586 126.073 9.92771 125.952 10.3192C125.831 10.7108 125.631 11.0738 125.365 11.3864C124.805 11.8407 124.095 12.071 123.374 12.0318C122.652 11.9926 121.971 11.6869 121.465 11.1747C118.561 8.76058 114.925 7.38188 111.139 7.25864C105.64 7.25864 100.782 9.69295 100.782 14.5162C100.782 19.6116 105.701 21.3656 111.672 23.1043C122.09 25.6596 126.903 30.0595 126.903 37.1659C126.827 45.1643 119.242 49.9876 110.91 49.9876H110.971Z" fill="#A8BABE"/>
</g>
<g opacity="0.6">
<path fill-rule="evenodd" clip-rule="evenodd" d="M70.4746 10.0512C71.5322 9.84206 72.6281 9.95284 73.6223 10.3694C74.6215 10.78 75.4761 11.4784 76.0775 12.3757C76.6789 13.273 77 14.3288 77 15.409V35.4354C77 36.5155 76.6789 37.5713 76.0775 38.4687C75.4761 39.366 74.6215 40.0643 73.6223 40.4749C72.9633 40.7557 72.254 40.8993 71.5377 40.8971C70.0999 40.9123 68.7146 40.3573 67.6851 39.3536L58.5416 30.2111C57.2799 28.9472 56.5713 27.2343 56.5713 25.4486C56.5713 23.6628 57.2799 21.9499 58.5416 20.686L67.6851 11.5435C68.4459 10.7799 69.4171 10.2603 70.4746 10.0512ZM72.3204 35.9579C72.4224 35.8028 72.476 35.621 72.4745 35.4354V15.4617C72.483 15.2737 72.4313 15.0879 72.3269 14.9313C72.2225 14.7746 72.0708 14.6555 71.8939 14.591C71.773 14.5391 71.6429 14.5122 71.5113 14.5119C71.2859 14.4843 71.0587 14.5458 70.878 14.6834L61.7346 23.8259C61.5279 24.0318 61.364 24.2764 61.2521 24.5458C61.1402 24.8152 61.0826 25.1041 61.0826 25.3958C61.0826 25.6875 61.1402 25.9763 61.2521 26.2457C61.364 26.5151 61.5279 26.7598 61.7346 26.9657L70.878 36.1082C71.0098 36.2389 71.1774 36.3275 71.3597 36.3628C71.5419 36.3981 71.7305 36.3784 71.9016 36.3063C72.0726 36.2342 72.2184 36.113 72.3204 35.9579ZM7.91638 7.88824e-06H41.3631C43.6563 0.0035033 45.8544 0.916841 47.4747 2.53947C49.0951 4.1621 50.0051 6.36137 50.0051 8.65436V42.0976C50.0039 42.874 49.8184 43.6388 49.4642 44.3291V44.3135C48.9686 45.3135 48.1237 46.0973 47.0893 46.5167C46.2261 46.8972 45.2689 47.0114 44.3404 46.8445C43.4119 46.6777 42.5543 46.2373 41.8777 45.58L41.7633 45.4656C41.7706 45.4644 41.778 45.4631 41.7853 45.4617L30.3461 34.6042L25.6477 39.2852L28.1691 36.741L24.9629 33.5484L23.6687 34.834L28.6441 29.8549C29.0666 29.4501 29.6291 29.2241 30.2142 29.2241C30.7993 29.2241 31.3618 29.4501 31.7843 29.8549L44.9782 42.3615C45.0267 42.3949 45.0842 42.4129 45.1432 42.4129C45.2021 42.4129 45.2596 42.3949 45.3081 42.3615C45.365 42.3462 45.4147 42.3114 45.4484 42.2631C45.4822 42.2149 45.4979 42.1563 45.4928 42.0976V8.65436C45.4928 7.55799 45.0581 6.50633 44.284 5.72984C43.5099 4.95335 42.4596 4.51537 41.3631 4.51188H7.91638C7.85646 4.50998 7.79767 4.52855 7.74971 4.56452C7.70175 4.60049 7.66746 4.65172 7.6525 4.70977C7.61715 4.75748 7.59807 4.8153 7.59807 4.87468C7.59807 4.93406 7.61715 4.99187 7.6525 5.03958L20.1472 18.2322C20.559 18.6537 20.7896 19.2195 20.7896 19.8087C20.7896 20.3979 20.559 20.9638 20.1472 21.3852L16.4796 25.0524L13.3128 21.8733L15.3974 19.7889L4.51234 8.25858C4.5119 8.26683 4.51149 8.27507 4.51111 8.28332L4.41998 8.1922C3.74804 7.51061 3.29972 6.64051 3.13472 5.69777C2.96973 4.75503 3.09589 3.7844 3.4964 2.91515C3.92035 1.90132 4.6843 1.06767 5.65583 0.556852C5.67047 0.551498 5.68512 0.546182 5.6998 0.540905C6.38411 0.1842 7.14467 -0.00139445 7.91638 7.88824e-06ZM0 26.7938L2.8856e-06 41.3588C0.00349866 43.6518 0.916931 45.8497 2.53972 47.4699C4.16252 49.09 6.36202 50 8.65525 50H41.3631C41.389 50 41.4149 49.9998 41.4408 49.9995H23.2082V45.4881H19.4215L19.4219 45.4877H13.0229L13.0224 45.4881H8.65525C7.55876 45.4881 6.50699 45.0535 5.73042 44.2795C4.95386 43.5055 4.51583 42.4552 4.51234 41.3588V36.9393V30.5937V26.7938H0Z" fill="#A8BABE"/>
<path d="M49.4645 44.314C48.9688 45.314 48.124 46.0977 47.0896 46.5171C46.2264 46.8977 45.2692 47.0119 44.3406 46.845C43.4121 46.6781 42.5546 46.2378 41.878 45.5805L41.7592 45.4617C41.6276 45.4749 41.495 45.4749 41.3634 45.4617H23.2085V50H49.4645V44.314Z" fill="url(#paint0_linear)"/>
<path d="M5.71299 0.527344C4.71427 1.03523 3.92863 1.88157 3.4964 2.91521C3.09589 3.78446 2.96973 4.75508 3.13472 5.69782C3.29972 6.64056 3.74804 7.51066 4.41998 8.19225L4.51071 8.28297L4.51172 26.7938H0V0.527344H5.71299Z" fill="url(#paint1_linear)"/>
<path d="M4.51221 37.1108V30.4618L13.3116 21.8728L16.4793 25.0528L4.51221 37.1108Z" fill="url(#paint2_linear)"/>
<path d="M28.1692 36.7414L19.5008 45.4881H12.9434L24.9631 33.5488L28.1692 36.7414Z" fill="url(#paint3_linear)"/>
</g>
<defs>
<linearGradient id="paint0_linear" x1="23.1557" y1="47.1636" x2="45.1897" y2="47.1636" gradientUnits="userSpaceOnUse">
<stop stop-color="#A8BABE"/>
<stop offset="1" stop-color="#A8BABE" stop-opacity="0"/>
</linearGradient>
<linearGradient id="paint1_linear" x1="2.6388" y1="26.3849" x2="2.6388" y2="5.93631" gradientUnits="userSpaceOnUse">
<stop stop-color="#A8BABE"/>
<stop offset="1" stop-color="#A8BABE" stop-opacity="0"/>
</linearGradient>
<linearGradient id="paint2_linear" x1="2.84977" y1="35.4486" x2="14.8682" y2="23.4421" gradientUnits="userSpaceOnUse">
<stop stop-color="#A8BABE" stop-opacity="0"/>
<stop offset="1" stop-color="#A8BABE"/>
</linearGradient>
<linearGradient id="paint3_linear" x1="15.9636" y1="48.1132" x2="20.7389" y2="33.9022" gradientUnits="userSpaceOnUse">
<stop stop-color="#A8BABE" stop-opacity="0"/>
<stop offset="1" stop-color="#A8BABE"/>
</linearGradient>
</defs>
</svg>
