<svg width="283" height="283" viewBox="0 0 283 283" fill="none" xmlns="http://www.w3.org/2000/svg">
<path opacity="0.15" d="M141.5 257C205.841 257 258 204.841 258 140.5C258 76.1588 205.841 24 141.5 24C77.1588 24 25 76.1588 25 140.5C25 204.841 77.1588 257 141.5 257Z" fill="#49AAEF"/>
<mask id="path-2-inside-1" fill="white">
<path d="M146.091 10.2994L236.003 62.2675C237.857 63.3396 239 65.3196 239 67.4622V78C239 80.2091 237.209 82 235 82H48C45.7909 82 44 80.2091 44 78V67.4839C44 65.3297 45.1548 63.3408 47.0258 62.273L138.122 10.2778C140.594 8.86731 143.628 8.87556 146.091 10.2994Z"/>
</mask>
<path d="M146.091 10.2994L236.003 62.2675C237.857 63.3396 239 65.3196 239 67.4622V78C239 80.2091 237.209 82 235 82H48C45.7909 82 44 80.2091 44 78V67.4839C44 65.3297 45.1548 63.3408 47.0258 62.273L138.122 10.2778C140.594 8.86731 143.628 8.87556 146.091 10.2994Z" fill="#B6DDF9"/>
<path d="M236.003 62.2675L229.997 72.6569L229.997 72.6569L236.003 62.2675ZM146.091 10.2994L152.096 -0.0899963L152.097 -0.0899811L146.091 10.2994ZM138.122 10.2778L144.071 20.6996L144.071 20.6997L138.122 10.2778ZM47.0258 62.273L52.9742 72.6949H52.9742L47.0258 62.273ZM229.997 72.6569L140.086 20.6888L152.097 -0.0899811L242.008 51.8781L229.997 72.6569ZM144.071 20.6997L52.9742 72.6949L41.0773 51.8511L132.174 -0.144096L144.071 20.6997ZM56 67.4839V78H32V67.4839H56ZM48 70H235V94H48V70ZM227 78V67.4622H251V78H227ZM235 70C230.582 70 227 73.5817 227 78H251C251 86.8366 243.837 94 235 94V70ZM56 78C56 73.5817 52.4183 70 48 70V94C39.1634 94 32 86.8366 32 78H56ZM140.086 20.6888C141.318 21.4008 142.835 21.4049 144.071 20.6996L132.174 -0.144089C138.352 -3.67028 145.938 -3.64964 152.096 -0.0899963L140.086 20.6888ZM52.9742 72.6949C54.8451 71.627 56 69.6381 56 67.4839H32C32 61.0213 35.4645 55.0547 41.0773 51.8511L52.9742 72.6949ZM242.008 51.8781C247.572 55.0946 251 61.0345 251 67.4622H227C227 69.6047 228.143 71.5847 229.997 72.6569L242.008 51.8781Z" fill="white" mask="url(#path-2-inside-1)"/>
<path d="M146.091 10.2994L145.341 11.5981L146.091 10.2994ZM236.003 62.2675L236.753 60.9688L236.003 62.2675ZM235.252 63.5661L145.341 11.5981L146.842 9.00075L236.753 60.9688L235.252 63.5661ZM138.866 11.5805L47.7693 63.5757L46.2822 60.9703L137.379 8.97504L138.866 11.5805ZM45.5 67.4839V78H42.5V67.4839H45.5ZM48 80.5H235V83.5H48V80.5ZM237.5 78V67.4622H240.5V78H237.5ZM235 80.5C236.381 80.5 237.5 79.3807 237.5 78H240.5C240.5 81.0376 238.038 83.5 235 83.5V80.5ZM45.5 78C45.5 79.3807 46.6193 80.5 48 80.5V83.5C44.9624 83.5 42.5 81.0376 42.5 78H45.5ZM145.341 11.5981C143.339 10.4412 140.874 10.4345 138.866 11.5805L137.379 8.97504C140.313 7.30012 143.917 7.30991 146.842 9.00075L145.341 11.5981ZM47.7693 63.5757C46.3661 64.3766 45.5 65.8683 45.5 67.4839H42.5C42.5 64.7912 43.9436 62.3051 46.2822 60.9703L47.7693 63.5757ZM236.753 60.9688C239.072 62.309 240.5 64.784 240.5 67.4622H237.5C237.5 65.8553 236.643 64.3703 235.252 63.5661L236.753 60.9688Z" fill="#49AAEF"/>
<g filter="url(#filter0_i)">
<path d="M143.241 152.789H162.454C169.036 152.789 173.522 157.943 174.211 164.144C174.431 166.129 172.878 167.865 170.881 167.865H134.814C132.817 167.865 131.263 166.129 131.484 164.144C132.173 157.943 136.659 152.789 143.241 152.789Z" fill="white"/>
<path d="M159.42 137.899L164.661 132.754C166.569 130.88 166.908 127.902 165.504 125.625C159.686 116.184 151.738 108.056 142.395 102.081C140.169 100.657 137.254 100.96 135.368 102.812L130.128 107.956C128.219 109.83 127.881 112.808 129.284 115.085C135.102 124.526 143.051 132.654 152.393 138.629C154.619 140.053 157.534 139.75 159.42 137.899Z" fill="white"/>
</g>
<path d="M143.241 152.789H162.454C169.036 152.789 173.522 157.943 174.211 164.144C174.431 166.129 172.878 167.865 170.881 167.865H134.814C132.817 167.865 131.263 166.129 131.484 164.144C132.173 157.943 136.659 152.789 143.241 152.789Z" stroke="#49AAEF" stroke-width="3" stroke-miterlimit="10" stroke-linecap="round" stroke-linejoin="round"/>
<path d="M159.42 137.899L164.661 132.754C166.569 130.88 166.908 127.902 165.504 125.625C159.686 116.184 151.738 108.056 142.395 102.081C140.169 100.657 137.254 100.96 135.368 102.812L130.128 107.956C128.219 109.83 127.881 112.808 129.284 115.085C135.102 124.526 143.051 132.654 152.393 138.629C154.619 140.053 157.534 139.75 159.42 137.899Z" stroke="#49AAEF" stroke-width="3" stroke-miterlimit="10" stroke-linecap="round" stroke-linejoin="round"/>
<path d="M138.906 128.688L108.646 158.948" stroke="url(#paint0_linear)" stroke-width="3" stroke-linecap="round" stroke-linejoin="round"/>
<rect x="65" y="96" width="30" height="98" fill="white" stroke="#49AAEF" stroke-width="3" stroke-miterlimit="10" stroke-linecap="round" stroke-linejoin="round"/>
<rect opacity="0.15" x="85" y="96" width="10" height="98" fill="#49AAEF"/>
<rect x="65" y="97" width="30" height="5" fill="#49AAEF" fill-opacity="0.4"/>
<path d="M61 82H99V92C99 94.2091 97.2091 96 95 96H65C62.7909 96 61 94.2091 61 92V82Z" fill="white" stroke="#49AAEF" stroke-width="3" stroke-miterlimit="10" stroke-linecap="round" stroke-linejoin="round"/>
<path d="M52 198C52 195.791 53.7909 194 56 194H227C229.209 194 231 195.791 231 198V229H52V198Z" fill="white"/>
<path d="M52 225C52 227.209 53.7909 229 56 229H227C229.209 229 231 227.209 231 225V218H52V225Z" fill="#B6DDF9"/>
<path d="M52 198C52 195.791 53.7909 194 56 194H227C229.209 194 231 195.791 231 198V229H52V198Z" stroke="#49AAEF" stroke-width="3" stroke-miterlimit="10" stroke-linecap="round" stroke-linejoin="round"/>
<path d="M20 229L263 229" stroke="url(#paint1_linear)" stroke-width="3" stroke-miterlimit="10" stroke-linecap="round" stroke-linejoin="round"/>
<rect x="188" y="96" width="30" height="98" fill="white" stroke="#49AAEF" stroke-width="3" stroke-miterlimit="10" stroke-linecap="round" stroke-linejoin="round"/>
<path d="M184 82H222V92C222 94.2091 220.209 96 218 96H188C185.791 96 184 94.2091 184 92V82Z" fill="white" stroke="#49AAEF" stroke-width="3" stroke-miterlimit="10" stroke-linecap="round" stroke-linejoin="round"/>
<rect x="188" y="97" width="30" height="5" fill="#49AAEF" fill-opacity="0.4"/>
<circle cx="141.5" cy="48.5" r="9.5" fill="white"/>
<rect opacity="0.15" x="208" y="96" width="10" height="98" fill="#49AAEF"/>
<rect opacity="0.15" x="212" y="82" width="10" height="14" fill="#49AAEF"/>
<rect opacity="0.15" x="221" y="194" width="10" height="35" fill="#49AAEF"/>
<rect opacity="0.15" x="89" y="82" width="10" height="14" fill="#49AAEF"/>
<defs>
<filter id="filter0_i" x="126.925" y="99.6875" width="48.807" height="69.6772" filterUnits="userSpaceOnUse" color-interpolation-filters="sRGB">
<feFlood flood-opacity="0" result="BackgroundImageFix"/>
<feBlend mode="normal" in="SourceGraphic" in2="BackgroundImageFix" result="shape"/>
<feColorMatrix in="SourceAlpha" type="matrix" values="0 0 0 0 0 0 0 0 0 0 0 0 0 0 0 0 0 0 127 0" result="hardAlpha"/>
<feOffset dy="-7"/>
<feComposite in2="hardAlpha" operator="arithmetic" k2="-1" k3="1"/>
<feColorMatrix type="matrix" values="0 0 0 0 0.286275 0 0 0 0 0.666667 0 0 0 0 0.937255 0 0 0 0.4 0"/>
<feBlend mode="normal" in2="shape" result="effect1_innerShadow"/>
</filter>
<linearGradient id="paint0_linear" x1="2.05081e+13" y1="127.896" x2="2.05081e+13" y2="161.344" gradientUnits="userSpaceOnUse">
<stop stop-color="#49AAEF" stop-opacity="0.05"/>
<stop offset="0.369792" stop-color="#49AAEF"/>
</linearGradient>
<linearGradient id="paint1_linear" x1="263" y1="229" x2="24.5" y2="229" gradientUnits="userSpaceOnUse">
<stop stop-color="#49AAEF" stop-opacity="0"/>
<stop offset="0.15322" stop-color="#49AAEF"/>
<stop offset="0.881518" stop-color="#49AAEF"/>
<stop offset="1" stop-color="#49AAEF" stop-opacity="0"/>
</linearGradient>
</defs>
</svg>
