<svg width="283" height="283" viewBox="0 0 283 283" fill="none" xmlns="http://www.w3.org/2000/svg">
<path opacity="0.15" d="M141.5 258C205.841 258 258 205.841 258 141.5C258 77.1588 205.841 25 141.5 25C77.1588 25 25 77.1588 25 141.5C25 205.841 77.1588 258 141.5 258Z" fill="#49AAEF"/>
<path d="M77.4529 73.6791C80.8226 65.9769 88.4323 61 96.8394 61C108.526 61 118 70.4739 118 82.1606V109H62L77.4529 73.6791Z" fill="white" stroke="#49AAEF" stroke-width="3" stroke-miterlimit="10" stroke-linecap="round" stroke-linejoin="round"/>
<path opacity="0.15" fill-rule="evenodd" clip-rule="evenodd" d="M109.815 65.4438L108 109H118V82.1606C118 75.3638 114.795 69.3154 109.815 65.4438Z" fill="#49AAEF"/>
<path d="M205.547 73.6791C202.177 65.9769 194.568 61 186.161 61C174.474 61 165 70.4739 165 82.1606V109H221L205.547 73.6791Z" fill="white" stroke="#49AAEF" stroke-width="3" stroke-miterlimit="10" stroke-linecap="round" stroke-linejoin="round"/>
<path opacity="0.15" fill-rule="evenodd" clip-rule="evenodd" d="M191.245 61.6189C197.535 63.1756 202.875 67.5701 205.547 73.679L221 109H210L191.245 61.6189Z" fill="#49AAEF"/>
<path fill-rule="evenodd" clip-rule="evenodd" d="M31.5071 144.071L53.9831 102.683C59.2318 93.0181 69.3483 87 80.3465 87H125.464C126.908 87 128.121 88.0854 128.28 89.52L128.73 93.5703C129.453 100.077 134.953 105 141.5 105C148.047 105 153.547 100.077 154.27 93.5703L154.72 89.52C154.879 88.0854 156.092 87 157.536 87H203.397C214.53 87 224.749 93.1661 229.938 103.017L252.212 145.294C252.776 146.284 253.309 147.294 253.808 148.324L254 148.688L253.987 148.695C257.201 155.454 259 163.017 259 171C259 199.719 235.719 223 207 223C180.828 223 159.172 203.665 155.537 178.5H127.463C123.828 203.665 102.172 223 76 223C47.2812 223 24 199.719 24 171C24 163.017 25.7989 155.454 29.0135 148.695L29 148.688L29.1434 148.424C29.8635 146.932 30.6528 145.479 31.5071 144.071Z" fill="white"/>
<path d="M53.9831 102.683L55.3013 103.399L53.9831 102.683ZM31.5071 144.071L32.7896 144.849C32.802 144.828 32.8138 144.808 32.8252 144.787L31.5071 144.071ZM128.28 89.52L126.789 89.6856L126.789 89.6856L128.28 89.52ZM128.73 93.5703L130.221 93.4047L130.221 93.4047L128.73 93.5703ZM154.27 93.5703L152.779 93.4047V93.4047L154.27 93.5703ZM154.72 89.52L156.211 89.6856V89.6856L154.72 89.52ZM229.938 103.017L231.265 102.317L229.938 103.017ZM252.212 145.294L250.885 145.994C250.893 146.008 250.901 146.023 250.909 146.037L252.212 145.294ZM253.808 148.324L252.459 148.979C252.466 148.993 252.474 149.008 252.481 149.023L253.808 148.324ZM254 148.688L254.71 150.009C255.435 149.619 255.711 148.717 255.327 147.988L254 148.688ZM253.987 148.695L253.277 147.373C252.572 147.752 252.288 148.616 252.632 149.339L253.987 148.695ZM155.537 178.5L157.021 178.286C156.915 177.548 156.282 177 155.537 177V178.5ZM127.463 178.5V177C126.718 177 126.085 177.548 125.979 178.286L127.463 178.5ZM29.0135 148.695L30.3681 149.339C30.7135 148.613 30.4247 147.743 29.7134 147.368L29.0135 148.695ZM29 148.688L27.6818 147.972C27.4905 148.324 27.4482 148.738 27.5643 149.122C27.6805 149.506 27.9454 149.827 28.3001 150.014L29 148.688ZM29.1434 148.424L30.4615 149.139C30.4729 149.118 30.4838 149.097 30.4942 149.076L29.1434 148.424ZM52.665 101.967L30.1889 143.355L32.8252 144.787L55.3013 103.399L52.665 101.967ZM80.3465 85.5C68.7984 85.5 58.1761 91.819 52.665 101.967L55.3013 103.399C60.2875 94.2172 69.8982 88.5 80.3465 88.5V85.5ZM125.464 85.5H80.3465V88.5H125.464V85.5ZM129.771 89.3544C129.527 87.1601 127.672 85.5 125.464 85.5V88.5C126.144 88.5 126.714 89.0107 126.789 89.6856L129.771 89.3544ZM130.221 93.4047L129.771 89.3544L126.789 89.6856L127.239 93.736L130.221 93.4047ZM141.5 103.5C135.717 103.5 130.859 99.152 130.221 93.4047L127.239 93.736C128.047 101.003 134.189 106.5 141.5 106.5V103.5ZM152.779 93.4047C152.141 99.152 147.283 103.5 141.5 103.5V106.5C148.811 106.5 154.953 101.003 155.761 93.736L152.779 93.4047ZM153.229 89.3544L152.779 93.4047L155.761 93.736L156.211 89.6856L153.229 89.3544ZM157.536 85.5C155.328 85.5 153.473 87.1601 153.229 89.3544L156.211 89.6856C156.286 89.0107 156.856 88.5 157.536 88.5V85.5ZM203.397 85.5H157.536V88.5H203.397V85.5ZM231.265 102.317C225.816 91.9744 215.087 85.5 203.397 85.5V88.5C213.974 88.5 223.681 94.3578 228.611 103.716L231.265 102.317ZM253.539 144.595L231.265 102.317L228.611 103.716L250.885 145.994L253.539 144.595ZM255.158 147.669C254.644 146.61 254.096 145.57 253.516 144.552L250.909 146.037C251.457 146.998 251.974 147.979 252.459 148.979L255.158 147.669ZM255.327 147.988L255.135 147.624L252.481 149.023L252.673 149.387L255.327 147.988ZM254.696 150.016L254.71 150.009L253.29 147.366L253.277 147.373L254.696 150.016ZM260.5 171C260.5 162.789 258.649 155.007 255.341 148.051L252.632 149.339C255.753 155.901 257.5 163.245 257.5 171H260.5ZM207 224.5C236.547 224.5 260.5 200.547 260.5 171H257.5C257.5 198.89 234.89 221.5 207 221.5V224.5ZM154.052 178.714C157.793 204.607 180.072 224.5 207 224.5V221.5C181.584 221.5 160.552 202.723 157.021 178.286L154.052 178.714ZM127.463 180H155.537V177H127.463V180ZM76 224.5C102.928 224.5 125.207 204.607 128.948 178.714L125.979 178.286C122.448 202.723 101.416 221.5 76 221.5V224.5ZM22.5 171C22.5 200.547 46.4528 224.5 76 224.5V221.5C48.1096 221.5 25.5 198.89 25.5 171H22.5ZM27.6589 148.05C24.3506 155.007 22.5 162.789 22.5 171H25.5C25.5 163.244 27.2472 155.901 30.3681 149.339L27.6589 148.05ZM28.3001 150.014L28.3135 150.021L29.7134 147.368L29.6999 147.361L28.3001 150.014ZM27.8252 147.708L27.6818 147.972L30.3182 149.403L30.4615 149.139L27.8252 147.708ZM30.2245 143.293C29.3456 144.742 28.5335 146.236 27.7925 147.771L30.4942 149.076C31.1935 147.627 31.9599 146.217 32.7896 144.849L30.2245 143.293Z" fill="#49AAEF"/>
<path opacity="0.15" fill-rule="evenodd" clip-rule="evenodd" d="M228.173 123.492C238.319 128.02 246.748 135.703 252.212 145.295L229.938 103.017C225.957 95.4589 219.015 90.0701 210.97 87.9709L228.173 123.492ZM253.808 148.324C253.868 148.447 253.928 148.571 253.987 148.695L254 148.688L253.808 148.324Z" fill="#49AAEF"/>
<rect x="129" y="173" width="25" height="4" fill="#49AAEF" fill-opacity="0.4"/>
<circle cx="76" cy="171" r="52" stroke="#49AAEF" stroke-width="3" stroke-miterlimit="10" stroke-linecap="round" stroke-linejoin="round"/>
<circle cx="207" cy="171" r="52" stroke="#49AAEF" stroke-width="3" stroke-miterlimit="10" stroke-linecap="round" stroke-linejoin="round"/>
<circle cx="76" cy="171" r="39" fill="#49AAEF" fill-opacity="0.4"/>
<circle cx="207" cy="171" r="39" fill="#49AAEF" fill-opacity="0.4"/>
<path d="M112 133H171" stroke="#49AAEF" stroke-width="3" stroke-miterlimit="10" stroke-linecap="round" stroke-linejoin="round"/>
<circle cx="141.5" cy="151.5" r="2.5" fill="#49AAEF"/>
<path d="M116 96H121.75C122.817 105.676 130.993 113 140.728 113H142.272C152.007 113 160.183 105.676 161.25 96H167V125H116V96Z" fill="#49AAEF" fill-opacity="0.4"/>
<path d="M92.9718 163H59.0282C56.4559 163 54.5522 165.393 55.1306 167.899L59.2845 185.899C59.7033 187.714 61.3194 189 63.1821 189H88.818C90.6806 189 92.2967 187.714 92.7155 185.899L96.8694 167.899C97.4478 165.393 95.5441 163 92.9718 163Z" stroke="#49AAEF" stroke-width="3" stroke-linecap="round" stroke-linejoin="round"/>
<path d="M84 172V158C84 153.582 80.4183 150 76 150V150C71.5817 150 68 153.582 68 158L68 172" stroke="#49AAEF" stroke-width="3" stroke-linecap="round" stroke-linejoin="round"/>
<path d="M70 172C70 173.105 69.1046 174 68 174C66.8954 174 66 173.105 66 172C66 170.895 66.8954 170 68 170C69.1046 170 70 170.895 70 172Z" fill="#49AAEF" stroke="#49AAEF" stroke-width="0.8"/>
<path d="M86 172C86 173.105 85.1046 174 84 174C82.8954 174 82 173.105 82 172C82 170.895 82.8954 170 84 170C85.1046 170 86 170.895 86 172Z" fill="#49AAEF" stroke="#49AAEF" stroke-width="0.8"/>
<path d="M217.095 190H197" stroke="#49AAEF" stroke-width="3" stroke-linecap="round" stroke-linejoin="round"/>
<path d="M207 188.717V182" stroke="#49AAEF" stroke-width="3" stroke-linecap="round" stroke-linejoin="round"/>
<path d="M219 162H224.252C227.356 162 229.653 165.052 228.832 167.974C227.463 172.843 223.499 175.038 219 176.307L215.037 177.425M195 162H189.75C186.688 162 184.336 165.011 185.169 167.974C186.539 172.844 190.506 175.021 195 176.297L198.964 177.422" stroke="#49AAEF" stroke-width="3" stroke-linecap="round" stroke-linejoin="round"/>
<path fill-rule="evenodd" clip-rule="evenodd" d="M216 154C217.657 154 219 155.343 219 157V165.642C219 173.125 215.794 178.717 209.382 181.242C207.855 181.843 206.145 181.843 204.618 181.242C198.206 178.716 195 173.116 195 165.558V157C195 155.343 196.343 154 198 154H216Z" stroke="#49AAEF" stroke-width="3" stroke-linecap="round" stroke-linejoin="round"/>
<path d="M60 221V258" stroke="url(#paint0_linear)" stroke-width="3" stroke-miterlimit="10" stroke-linecap="round" stroke-linejoin="round"/>
<path d="M223 221V258" stroke="url(#paint1_linear)" stroke-width="3" stroke-miterlimit="10" stroke-linecap="round" stroke-linejoin="round"/>
<defs>
<linearGradient id="paint0_linear" x1="571998" y1="221.78" x2="571998" y2="259.85" gradientUnits="userSpaceOnUse">
<stop stop-color="#49AAEF" stop-opacity="0.7"/>
<stop offset="1" stop-color="#49AAEF" stop-opacity="0"/>
</linearGradient>
<linearGradient id="paint1_linear" x1="572161" y1="221.78" x2="572161" y2="259.85" gradientUnits="userSpaceOnUse">
<stop stop-color="#49AAEF" stop-opacity="0.7"/>
<stop offset="1" stop-color="#49AAEF" stop-opacity="0"/>
</linearGradient>
</defs>
</svg>
