<svg width="283" height="283" viewBox="0 0 283 283" fill="none" xmlns="http://www.w3.org/2000/svg">
<g clip-path="url(#clip0)">
<path opacity="0.15" d="M141.5 258C205.841 258 258 205.841 258 141.5C258 77.1588 205.841 25 141.5 25C77.1588 25 25 77.1588 25 141.5C25 205.841 77.1588 258 141.5 258Z" fill="#49AAEF"/>
<g filter="url(#filter0_i)">
<path d="M202.014 213.683H224.236C231.849 213.683 237.037 219.645 237.834 226.818C238.089 229.113 236.292 231.121 233.983 231.121H192.267C189.957 231.121 188.16 229.113 188.415 226.818C189.212 219.645 194.401 213.683 202.014 213.683Z" fill="white"/>
<path d="M220.727 196.461L226.788 190.511C228.996 188.343 229.387 184.899 227.764 182.265C221.034 171.345 211.841 161.945 201.036 155.034C198.461 153.386 195.089 153.737 192.908 155.878L186.847 161.829C184.639 163.996 184.248 167.441 185.871 170.075C192.601 180.994 201.794 190.395 212.599 197.306C215.174 198.953 218.546 198.603 220.727 196.461Z" fill="white"/>
</g>
<path d="M202.014 213.683H224.236C231.849 213.683 237.037 219.645 237.834 226.818C238.089 229.113 236.292 231.121 233.983 231.121H192.267C189.957 231.121 188.16 229.113 188.415 226.818C189.212 219.645 194.401 213.683 202.014 213.683Z" stroke="#49AAEF" stroke-width="3" stroke-miterlimit="10" stroke-linecap="round" stroke-linejoin="round"/>
<path d="M220.727 196.461L226.788 190.511C228.996 188.343 229.387 184.899 227.764 182.265C221.034 171.345 211.841 161.945 201.036 155.034C198.461 153.386 195.089 153.737 192.908 155.878L186.847 161.829C184.639 163.996 184.248 167.441 185.871 170.075C192.601 180.994 201.794 190.395 212.599 197.306C215.174 198.953 218.546 198.603 220.727 196.461Z" stroke="#49AAEF" stroke-width="3" stroke-miterlimit="10" stroke-linecap="round" stroke-linejoin="round"/>
<path d="M197 185.808L162 220.808" stroke="url(#paint0_linear)" stroke-width="3" stroke-linecap="round" stroke-linejoin="round"/>
<path d="M141 293L141 156" stroke="url(#paint1_linear)" stroke-width="3" stroke-miterlimit="10" stroke-linecap="round" stroke-linejoin="round"/>
<g filter="url(#filter1_i)">
<path d="M94 168C94 174.627 88.6274 180 82 180C75.3726 180 70 174.627 70 168C70 161.373 75.3726 156 82 156C88.6274 156 94 161.373 94 168Z" fill="white"/>
</g>
<path d="M94 168C94 174.627 88.6274 180 82 180C75.3726 180 70 174.627 70 168C70 161.373 75.3726 156 82 156C88.6274 156 94 161.373 94 168Z" stroke="#49AAEF" stroke-width="3" stroke-miterlimit="10" stroke-linecap="round" stroke-linejoin="round"/>
<g filter="url(#filter2_i)">
<path d="M46 215.415C46 209.604 49.1503 204.25 54.2297 201.428L56.7466 200.03C72.4517 191.305 91.5483 191.305 107.253 200.03L109.77 201.428C114.85 204.25 118 209.604 118 215.415V220C118 226.628 112.627 232 106 232H58C51.3726 232 46 226.628 46 220V215.415Z" fill="white"/>
</g>
<path d="M46 215.415C46 209.604 49.1503 204.25 54.2297 201.428L56.7466 200.03C72.4517 191.305 91.5483 191.305 107.253 200.03L109.77 201.428C114.85 204.25 118 209.604 118 215.415V220C118 226.628 112.627 232 106 232H58C51.3726 232 46 226.628 46 220V215.415Z" stroke="#49AAEF" stroke-width="3" stroke-miterlimit="10" stroke-linecap="round" stroke-linejoin="round"/>
<path d="M64.6345 136.912C64.5859 137.739 65.2169 138.449 66.0439 138.497C66.8709 138.546 67.5807 137.915 67.6293 137.088L64.6345 136.912ZM215.371 137.088C215.419 137.915 216.129 138.546 216.956 138.497C217.783 138.449 218.414 137.739 218.366 136.912L215.371 137.088ZM76.9657 132.551C77.5996 132.018 77.6811 131.072 77.1478 130.438C76.6144 129.804 75.6682 129.723 75.0343 130.256L76.9657 132.551ZM65.7829 140L64.6559 140.99C65.1944 141.603 66.1242 141.673 66.7486 141.148L65.7829 140ZM58.127 129.01C57.5803 128.388 56.6326 128.326 56.0101 128.873C55.3877 129.42 55.3263 130.367 55.873 130.99L58.127 129.01ZM207.966 130.256C207.332 129.723 206.386 129.804 205.852 130.438C205.319 131.072 205.4 132.018 206.034 132.551L207.966 130.256ZM217.217 140L216.251 141.148C216.876 141.673 217.806 141.603 218.344 140.99L217.217 140ZM227.127 130.99C227.674 130.367 227.612 129.42 226.99 128.873C226.367 128.326 225.42 128.388 224.873 129.01L227.127 130.99ZM67.6293 137.088C69.9109 98.2736 102.112 67.5 141.5 67.5V64.5C100.514 64.5 67.0087 96.5212 64.6345 136.912L67.6293 137.088ZM141.5 67.5C180.888 67.5 213.089 98.2736 215.371 137.088L218.366 136.912C215.991 96.5212 182.486 64.5 141.5 64.5V67.5ZM75.0343 130.256L64.8172 138.852L66.7486 141.148L76.9657 132.551L75.0343 130.256ZM66.91 139.01L58.127 129.01L55.873 130.99L64.6559 140.99L66.91 139.01ZM206.034 132.551L216.251 141.148L218.183 138.852L207.966 130.256L206.034 132.551ZM218.344 140.99L227.127 130.99L224.873 129.01L216.09 139.01L218.344 140.99Z" fill="url(#paint2_radial)"/>
<path d="M108 96.97V21C108 16.03 112.03 12 117 12H167C171.97 12 176 16.03 176 21V34.14V132C176 136.97 171.97 141 167 141H117C112.03 141 108 136.97 108 132V96.97Z" fill="white" stroke="#49AAEF" stroke-width="3" stroke-miterlimit="10" stroke-linecap="round" stroke-linejoin="round"/>
<path d="M163.64 133L120.45 133C118.05 133 116.1 131.05 116.09 128.65L116 24.6202C116 22.1402 118.04 20.1402 120.55 20.1402H125.73L128.3 23.9C129.31 25.82 131.18 27 133.21 27L150.84 26.9999C152.87 26.9999 154.74 25.8199 155.75 23.8999L158.34 20.1401H163.73C166.13 20.1401 168.08 22.0901 168.08 24.5001L168 128.65C167.99 131.05 166.04 133 163.64 133Z" fill="#49AAEF" fill-opacity="0.4"/>
<path d="M132 126.5H151" stroke="white" stroke-width="3" stroke-miterlimit="10" stroke-linecap="round" stroke-linejoin="round"/>
<path d="M142 96C152.493 96 161 87.4934 161 77C161 66.5066 152.493 58 142 58C131.507 58 123 66.5066 123 77C123 87.4934 131.507 96 142 96Z" fill="white"/>
<path d="M144.253 66.488L140.517 69.8745L140.502 63.1227L144.253 66.488Z" fill="#49AAEF" stroke="#49AAEF"/>
<path d="M152.771 77.7881L152.768 77.8168C152.769 77.812 152.769 77.8072 152.769 77.8025C152.77 77.7977 152.77 77.7929 152.771 77.7881Z" fill="#49AAEF"/>
<path d="M141.789 87.7715C147.477 87.8854 152.335 83.5316 152.771 77.7881L152.768 77.8168C152.993 74.8621 152.005 72.0946 150.224 70.0004" stroke="#49AAEF" stroke-width="3" stroke-miterlimit="10" stroke-linecap="round"/>
<path d="M131.23 76.1829L131.232 76.1542C131.232 76.159 131.232 76.1638 131.231 76.1686C131.231 76.1733 131.231 76.1781 131.23 76.1829Z" fill="#49AAEF"/>
<path d="M142.212 66.1995C136.524 66.0856 131.666 70.4394 131.23 76.1829L131.232 76.1542C131.007 79.123 132.005 81.9027 133.803 84.0005" stroke="#49AAEF" stroke-width="3" stroke-miterlimit="10" stroke-linecap="round"/>
<path d="M139.747 87.5083L143.483 84.1248L143.498 90.8766L139.747 87.5083L139.423 87.8692L139.747 87.5083Z" fill="#49AAEF" stroke="#49AAEF"/>
</g>
<defs>
<filter id="filter0_i" x="183.377" y="152.5" width="55.9816" height="80.1206" filterUnits="userSpaceOnUse" color-interpolation-filters="sRGB">
<feFlood flood-opacity="0" result="BackgroundImageFix"/>
<feBlend mode="normal" in="SourceGraphic" in2="BackgroundImageFix" result="shape"/>
<feColorMatrix in="SourceAlpha" type="matrix" values="0 0 0 0 0 0 0 0 0 0 0 0 0 0 0 0 0 0 127 0" result="hardAlpha"/>
<feOffset dy="-7"/>
<feComposite in2="hardAlpha" operator="arithmetic" k2="-1" k3="1"/>
<feColorMatrix type="matrix" values="0 0 0 0 0.286275 0 0 0 0 0.666667 0 0 0 0 0.937255 0 0 0 0.4 0"/>
<feBlend mode="normal" in2="shape" result="effect1_innerShadow"/>
</filter>
<filter id="filter1_i" x="68.5" y="154.5" width="27" height="27" filterUnits="userSpaceOnUse" color-interpolation-filters="sRGB">
<feFlood flood-opacity="0" result="BackgroundImageFix"/>
<feBlend mode="normal" in="SourceGraphic" in2="BackgroundImageFix" result="shape"/>
<feColorMatrix in="SourceAlpha" type="matrix" values="0 0 0 0 0 0 0 0 0 0 0 0 0 0 0 0 0 0 127 0" result="hardAlpha"/>
<feOffset dy="-7"/>
<feComposite in2="hardAlpha" operator="arithmetic" k2="-1" k3="1"/>
<feColorMatrix type="matrix" values="0 0 0 0 0.286275 0 0 0 0 0.666667 0 0 0 0 0.937255 0 0 0 0.4 0"/>
<feBlend mode="normal" in2="shape" result="effect1_innerShadow"/>
</filter>
<filter id="filter2_i" x="44.5" y="191.986" width="75" height="41.5141" filterUnits="userSpaceOnUse" color-interpolation-filters="sRGB">
<feFlood flood-opacity="0" result="BackgroundImageFix"/>
<feBlend mode="normal" in="SourceGraphic" in2="BackgroundImageFix" result="shape"/>
<feColorMatrix in="SourceAlpha" type="matrix" values="0 0 0 0 0 0 0 0 0 0 0 0 0 0 0 0 0 0 127 0" result="hardAlpha"/>
<feOffset dy="-7"/>
<feComposite in2="hardAlpha" operator="arithmetic" k2="-1" k3="1"/>
<feColorMatrix type="matrix" values="0 0 0 0 0.286275 0 0 0 0 0.666667 0 0 0 0 0.937255 0 0 0 0.4 0"/>
<feBlend mode="normal" in2="shape" result="effect1_innerShadow"/>
</filter>
<linearGradient id="paint0_linear" x1="2.37202e+13" y1="184.892" x2="2.37202e+13" y2="223.579" gradientUnits="userSpaceOnUse">
<stop stop-color="#49AAEF" stop-opacity="0.05"/>
<stop offset="0.369792" stop-color="#49AAEF"/>
</linearGradient>
<linearGradient id="paint1_linear" x1="141" y1="156" x2="141" y2="277.93" gradientUnits="userSpaceOnUse">
<stop stop-color="#49AAEF" stop-opacity="0"/>
<stop offset="0.307292" stop-color="#49AAEF"/>
<stop offset="0.661458" stop-color="#49AAEF"/>
<stop offset="1" stop-color="#49AAEF" stop-opacity="0"/>
</linearGradient>
<radialGradient id="paint2_radial" cx="0" cy="0" r="1" gradientUnits="userSpaceOnUse" gradientTransform="translate(141.5 71) rotate(89.1048) scale(32.0039 118.282)">
<stop offset="0.114583" stop-color="white" stop-opacity="0"/>
<stop offset="1" stop-color="white"/>
</radialGradient>
<clipPath id="clip0">
<rect width="283" height="283" fill="white"/>
</clipPath>
</defs>
</svg>
