<svg width="41" height="26" viewBox="0 0 41 26" fill="none" xmlns="http://www.w3.org/2000/svg">
<path fill-rule="evenodd" clip-rule="evenodd" d="M37.5255 5.22662C38.0886 5.11787 38.6721 5.17548 39.2015 5.39209C39.7335 5.60561 40.1886 5.96874 40.5088 6.43535C40.829 6.90195 41 7.45097 41 8.01267V18.4264C41 18.9881 40.829 19.5371 40.5088 20.0037C40.1886 20.4703 39.7335 20.8334 39.2015 21.047C38.8506 21.1929 38.4729 21.2676 38.0915 21.2665C37.3259 21.2744 36.5883 20.9858 36.0401 20.4639L31.1715 15.7098C30.4997 15.0525 30.1224 14.1619 30.1224 13.2332C30.1224 12.3046 30.4997 11.414 31.1715 10.7567L36.0401 6.00264C36.4452 5.60555 36.9624 5.33537 37.5255 5.22662ZM38.5083 18.6981C38.5626 18.6175 38.5911 18.5229 38.5903 18.4264V8.04011C38.5949 7.94233 38.5673 7.84569 38.5117 7.76425C38.4561 7.68282 38.3754 7.62084 38.2812 7.58734C38.2168 7.56035 38.1475 7.54635 38.0775 7.54618C37.9574 7.53183 37.8364 7.56383 37.7402 7.63536L32.8717 12.3894C32.7616 12.4965 32.6743 12.6237 32.6148 12.7638C32.5552 12.9039 32.5245 13.0541 32.5245 13.2058C32.5245 13.3575 32.5552 13.5077 32.6148 13.6478C32.6743 13.7879 32.7616 13.9151 32.8717 14.0222L37.7402 18.7763C37.8104 18.8442 37.8997 18.8903 37.9967 18.9087C38.0937 18.927 38.1942 18.9168 38.2853 18.8793C38.3763 18.8418 38.454 18.7787 38.5083 18.6981ZM4.21522 4.10188e-06H22.0245C23.2456 0.00182172 24.416 0.476757 25.2788 1.32052C26.1415 2.16429 26.6261 3.30791 26.6261 4.50027V21.8908C26.6254 22.2945 26.5267 22.6922 26.3381 23.0511V23.043C26.0742 23.563 25.6243 23.9706 25.0735 24.1887C24.6139 24.3866 24.1042 24.4459 23.6098 24.3592C23.1154 24.2724 22.6588 24.0434 22.2985 23.7016L22.2376 23.6421C22.2415 23.6415 22.2454 23.6408 22.2493 23.6401L16.1583 17.9942L13.6566 20.4283L14.9991 19.1053L13.2919 17.4452L12.6028 18.1137L15.2521 15.5245C15.477 15.3141 15.7765 15.1966 16.0881 15.1966C16.3996 15.1966 16.6991 15.3141 16.9241 15.5245L23.9495 22.028C23.9753 22.0454 24.0059 22.0547 24.0373 22.0547C24.0686 22.0547 24.0993 22.0454 24.1251 22.028C24.1554 22.02 24.1818 22.0019 24.1998 21.9768C24.2178 21.9517 24.2262 21.9213 24.2234 21.8908V4.50027C24.2234 3.93015 23.992 3.38329 23.5798 2.97952C23.1676 2.57574 22.6083 2.34799 22.0245 2.34618H4.21522C4.18331 2.34519 4.15201 2.35485 4.12647 2.37355C4.10093 2.39225 4.08268 2.41889 4.07471 2.44908C4.05589 2.47389 4.04573 2.50395 4.04573 2.53483C4.04573 2.56571 4.05589 2.59577 4.07471 2.62058L10.7277 9.48074C10.947 9.6999 11.0698 9.99413 11.0698 10.3005C11.0698 10.6069 10.947 10.9012 10.7277 11.1203L8.77485 13.0273L7.08861 11.3741L8.1986 10.2902L2.40268 4.29446C2.40244 4.29875 2.40222 4.30304 2.40202 4.30733L2.3535 4.25994C1.99571 3.90552 1.757 3.45306 1.66914 2.96284C1.58129 2.47262 1.64846 1.96789 1.86172 1.51588C2.08746 0.988686 2.49424 0.555189 3.01155 0.289563C3.01934 0.286779 3.02715 0.284015 3.03496 0.281271C3.39933 0.0957839 3.80431 -0.000725115 4.21522 4.10188e-06ZM1.5304e-06 4.49295C-5.1001e-07 4.49539 -5.10255e-07 4.49783 1.5304e-06 4.50027V4.49295ZM1.5304e-06 13.9328V21.5066C0.00186445 22.6989 0.488237 23.8419 1.35232 24.6843C2.21641 25.5268 3.38757 26 4.60864 26H22.0245C22.0383 26 22.0521 25.9999 22.0659 25.9998H12.3576V23.6538H10.3413L10.3416 23.6536H6.93425L6.93403 23.6538H4.60864C4.0248 23.6538 3.46476 23.4278 3.05127 23.0253C2.63777 22.6228 2.40454 22.0767 2.40268 21.5066V19.2084V15.9087V13.9328H1.5304e-06Z" fill="#49AAEF"/>
<path d="M26.3379 23.0432C26.074 23.5632 25.6241 23.9708 25.0733 24.1889C24.6137 24.3868 24.104 24.4461 23.6096 24.3593C23.1152 24.2726 22.6586 24.0436 22.2983 23.7018L22.2351 23.64C22.165 23.6469 22.0944 23.6469 22.0243 23.64H12.3574V25.9999H26.3379V23.0432Z" fill="url(#paint0_linear)"/>
<path d="M3.04198 0.27417C2.51019 0.53827 2.09187 0.978368 1.86172 1.51586C1.64846 1.96787 1.58128 2.47259 1.66914 2.96282C1.75699 3.45304 1.99571 3.90549 2.3535 4.25992L2.40181 4.3071L2.40234 13.9327H0V0.27417H3.04198Z" fill="url(#paint1_linear)"/>
<path d="M2.40283 19.2977V15.8402L7.08825 11.3739L8.77493 13.0275L2.40283 19.2977Z" fill="url(#paint2_linear)"/>
<path d="M14.9989 19.1056L10.3832 23.6539H6.8916L13.2917 17.4454L14.9989 19.1056Z" fill="url(#paint3_linear)"/>
<defs>
<linearGradient id="paint0_linear" x1="12.3293" y1="24.525" x2="24.0617" y2="24.525" gradientUnits="userSpaceOnUse">
<stop stop-color="#49AAEF"/>
<stop offset="1" stop-color="#49AAEF" stop-opacity="0"/>
</linearGradient>
<linearGradient id="paint1_linear" x1="1.40507" y1="13.7201" x2="1.40507" y2="3.08683" gradientUnits="userSpaceOnUse">
<stop stop-color="#49AAEF"/>
<stop offset="1" stop-color="#49AAEF" stop-opacity="0"/>
</linearGradient>
<linearGradient id="paint2_linear" x1="1.51764" y1="18.4333" x2="7.76563" y2="12.0419" gradientUnits="userSpaceOnUse">
<stop stop-color="#49AAEF" stop-opacity="0"/>
<stop offset="1" stop-color="#49AAEF"/>
</linearGradient>
<linearGradient id="paint3_linear" x1="8.49976" y1="25.0189" x2="10.9362" y2="17.5943" gradientUnits="userSpaceOnUse">
<stop stop-color="#49AAEF" stop-opacity="0"/>
<stop offset="1" stop-color="#49AAEF"/>
</linearGradient>
</defs>
</svg>
