<svg width="24" height="24" viewBox="0 0 24 24" fill="none" xmlns="http://www.w3.org/2000/svg">
<path d="M5.63604 17.364C2.12132 13.8492 2.12132 8.15076 5.63604 4.63604C9.15076 1.12132 14.8492 1.12132 18.364 4.63604C21.8787 8.15076 21.8787 13.8492 18.364 17.364C16.543 19.1849 14.9006 20.6319 13.7406 21.6036C12.7245 22.4547 11.2755 22.4547 10.2594 21.6036C9.09935 20.6319 7.45701 19.1849 5.63604 17.364Z" stroke="#1C1C1F" stroke-width="1.4" stroke-linecap="round"/>
<path d="M14.5 11C14.5 12.3807 13.3807 13.5 12 13.5C10.6193 13.5 9.5 12.3807 9.5 11C9.5 9.61929 10.6193 8.5 12 8.5C13.3807 8.5 14.5 9.61929 14.5 11Z" stroke="#1C1C1F" stroke-width="1.4" stroke-linecap="round"/>
</svg>
