<svg width="24" height="24" viewBox="0 0 24 24" fill="none" xmlns="http://www.w3.org/2000/svg">
<path d="M20.2173 16.2013L19.5492 15.9925V15.9925L20.2173 16.2013ZM3.6649 16.0658L4.34399 15.8961L3.6649 16.0658ZM7.0482 3.86622L6.89635 3.18289V3.18289L7.0482 3.86622ZM16.7431 3.86622L16.8949 3.18289V3.18289L16.7431 3.86622ZM21.6996 12.3562C21.7119 11.9698 21.4085 11.6467 21.0221 11.6345C20.6357 11.6222 20.3126 11.9256 20.3004 12.312L21.6996 12.3562ZM3.80759 12.3331C3.80703 11.9465 3.49318 11.6336 3.10658 11.6341C2.71999 11.6347 2.40704 11.9485 2.40759 12.3351L3.80759 12.3331ZM12 20.5L12.0078 21.1999L12 20.5ZM3.52577 8.8797L3.11593 9.44718L3.52577 8.8797ZM10.8216 14.1489L10.4117 14.7164L10.8216 14.1489ZM20.3756 8.87397L19.9623 8.30897L20.3756 8.87397ZM20.7504 7.88075L20.0715 8.05138L20.7504 7.88075ZM7.20005 4.54955C10.2927 3.86229 13.4985 3.86229 16.5912 4.54955L16.8949 3.18289C13.6022 2.45118 10.189 2.45118 6.89635 3.18289L7.20005 4.54955ZM19.9623 8.30897L12.76 13.5768L13.5865 14.7068L20.7888 9.43897L19.9623 8.30897ZM11.2314 13.5814L3.93562 8.31223L3.11593 9.44718L10.4117 14.7164L11.2314 13.5814ZM16.5912 4.54955C17.6441 4.78352 18.3713 5.17474 18.898 5.71456C19.4285 6.25839 19.8093 7.00808 20.0715 8.05138L21.4293 7.71012C21.1288 6.5145 20.657 5.51273 19.9001 4.73691C19.1393 3.9571 18.1442 3.46052 16.8949 3.18289L16.5912 4.54955ZM3.82521 8.04735C4.0937 7.03283 4.46468 6.27611 4.98192 5.72111C5.4916 5.17422 6.1889 4.77425 7.20005 4.54955L6.89635 3.18289C5.6593 3.45779 4.69283 3.97786 3.95775 4.76661C3.23023 5.54725 2.77546 6.54175 2.4718 7.68918L3.82521 8.04735ZM20.3004 12.312C20.2541 13.7746 20.02 14.486 19.5492 15.9925L20.8855 16.4101C21.3583 14.8969 21.6468 14.0262 21.6996 12.3562L20.3004 12.312ZM4.34399 15.8961C3.97741 14.4297 3.80963 13.7555 3.80759 12.3331L2.40759 12.3351C2.40989 13.9359 2.61365 14.7471 2.9858 16.2356L4.34399 15.8961ZM11.9921 19.8C10.2907 19.8191 8.57492 19.7085 7.18087 19.1502C5.83184 18.61 4.78342 17.6538 4.34399 15.8961L2.9858 16.2356C3.54816 18.4851 4.95066 19.7652 6.66041 20.4499C8.32515 21.1165 10.276 21.2194 12.0078 21.1999L11.9921 19.8ZM19.5492 15.9925C19.036 17.6348 17.9915 18.5549 16.6687 19.0904C15.3087 19.641 13.6575 19.7813 11.9921 19.8L12.0078 21.1999C13.7053 21.1809 15.5782 21.0423 17.194 20.3881C18.847 19.7189 20.2297 18.5086 20.8855 16.4101L19.5492 15.9925ZM3.93562 8.31223C3.8324 8.23768 3.80401 8.12746 3.82521 8.04735L2.4718 7.68918C2.29114 8.37185 2.57949 9.05975 3.11593 9.44718L3.93562 8.31223ZM12.76 13.5768C12.3053 13.9094 11.6881 13.9113 11.2314 13.5814L10.4117 14.7164C11.3603 15.4014 12.6421 15.3976 13.5865 14.7068L12.76 13.5768ZM20.7888 9.43897C21.3122 9.0562 21.5986 8.38371 21.4293 7.71012L20.0715 8.05138C20.0908 8.12804 20.0634 8.23505 19.9623 8.30897L20.7888 9.43897Z" fill="white"/>
</svg>
