<svg width="24" height="24" viewBox="0 0 24 24" fill="none" xmlns="http://www.w3.org/2000/svg">
<path fill-rule="evenodd" clip-rule="evenodd" d="M6.35026 15.1299C8.23138 17.3701 10.4958 19.1339 13.0804 20.3819C14.0644 20.8465 15.3804 21.3976 16.8466 21.4921C16.9375 21.4961 17.0244 21.5 17.1153 21.5C18.0994 21.5 18.8897 21.1614 19.5339 20.4646C19.5379 20.4606 19.5458 20.4528 19.5497 20.4449C19.7789 20.1693 20.0398 19.9213 20.3124 19.6575C20.4982 19.4803 20.6879 19.2953 20.8697 19.1063C21.7114 18.2323 21.7114 17.122 20.8618 16.2756L18.4866 13.9094C18.0836 13.4921 17.6014 13.2717 17.0956 13.2717C16.5897 13.2717 16.1036 13.4921 15.6887 13.9055L14.2739 15.315C14.1435 15.2402 14.0091 15.1732 13.8826 15.1102C13.7246 15.0315 13.5783 14.9567 13.4479 14.874C12.1596 14.0591 10.9898 12.9961 9.87144 11.6299C9.30631 10.9173 8.92692 10.3189 8.66214 9.70866C9.03363 9.37402 9.3814 9.02362 9.71731 8.6811C9.83587 8.55906 9.95838 8.43701 10.0809 8.31496C10.5077 7.88976 10.7369 7.39764 10.7369 6.89764C10.7369 6.39764 10.5116 5.90551 10.0809 5.48031L8.90321 4.30709C8.76489 4.16929 8.63448 4.03543 8.50012 3.89764C8.23929 3.62992 7.9666 3.35433 7.69787 3.1063C7.29082 2.70866 6.81264 2.5 6.30679 2.5C5.8049 2.5 5.32276 2.70866 4.89991 3.11024L3.42188 4.58268C2.88442 5.11811 2.58012 5.76772 2.51689 6.51968C2.4418 7.46063 2.61569 8.46063 3.06621 9.66929C3.7578 11.5394 4.80111 13.2756 6.35026 15.1299Z" stroke="#1C1C1F" stroke-width="1.4" stroke-linecap="round" stroke-linejoin="round"/>
</svg>
