<svg width="24" height="24" viewBox="0 0 24 24" fill="none" xmlns="http://www.w3.org/2000/svg">
<g clip-path="url(#clip0)">
<path d="M8 12C8 9.79086 9.79086 8 12 8C14.2091 8 16 9.79086 16 12C16 14.2091 14.2091 16 12 16C9.79086 16 8 14.2091 8 12Z" stroke="#1C1C1F" stroke-width="1.4" stroke-linecap="round"/>
<path d="M2.5 12C2.5 6.75329 6.75329 2.5 12 2.5C17.2467 2.5 21.5 6.75329 21.5 12C21.5 17.2467 17.2467 21.5 12 21.5C6.75329 21.5 2.5 17.2467 2.5 12Z" stroke="#1C1C1F" stroke-width="1.4" stroke-linecap="round"/>
<path d="M9.17196 9.17157L5.63642 5.63604M18.3643 18.364L14.8288 14.8284M14.8288 9.17157L18.3643 5.63604M5.63642 18.364L9.17196 14.8284" stroke="#1C1C1F" stroke-width="1.4" stroke-linecap="round"/>
</g>
<defs>
<clipPath id="clip0">
<rect width="24" height="24" fill="white"/>
</clipPath>
</defs>
</svg>
