<svg width="24" height="24" viewBox="0 0 24 24" fill="none" xmlns="http://www.w3.org/2000/svg">
<path d="M15 5C15 6.65685 13.6569 8 12 8C10.3431 8 9 6.65685 9 5C9 3.34315 10.3431 2 12 2C13.6569 2 15 3.34315 15 5Z" stroke="white" stroke-width="1.4" stroke-linecap="round"/>
<path d="M3 16.8536C3 15.4009 3.78757 14.0625 5.05743 13.357L5.68664 13.0074C9.61293 10.8261 14.3871 10.8261 18.3134 13.0074L18.9426 13.357C20.2124 14.0625 21 15.4009 21 16.8536V18C21 19.6569 19.6569 21 18 21H6C4.34315 21 3 19.6569 3 18L3 16.8536Z" stroke="white" stroke-width="1.4" stroke-linecap="round"/>
</svg>
